<svg width="19" height="19" viewBox="0 0 19 19" fill="none" xmlns="http://www.w3.org/2000/svg">
<path d="M18.4772 5.94046C18.4053 4.46189 18.0665 3.14761 16.9883 2.06949C15.9102 0.991362 14.5959 0.652525 13.1174 0.58065C11.5874 0.498507 7.01823 0.498507 5.49859 0.58065C4.02001 0.652525 2.716 0.991362 1.62761 2.06949C0.539215 3.14761 0.210631 4.46189 0.138756 5.94046C0.0566127 7.47038 0.0566127 12.0396 0.138756 13.5695C0.210631 15.0481 0.549483 16.3624 1.62761 17.4405C2.716 18.5186 4.02001 18.8575 5.49859 18.9293C7.0285 19.0115 11.5977 19.0115 13.1174 18.9293C14.5959 18.8575 15.9102 18.5186 16.9883 17.4405C18.0665 16.3624 18.4053 15.0481 18.4772 13.5695C18.5593 12.0396 18.5593 7.47039 18.4772 5.95074V5.94046ZM9.29771 14.6271C6.60753 14.6271 4.42047 12.44 4.42047 9.74985C4.42047 7.05967 6.60753 4.87261 9.29771 4.87261C11.9879 4.87261 14.175 7.05967 14.175 9.74985C14.175 12.44 11.9879 14.6271 9.29771 14.6271ZM14.9656 5.12931C14.4008 5.12931 13.9388 4.66726 13.9388 4.10252C13.9388 3.53779 14.3906 3.07574 14.9656 3.07574C15.5303 3.07574 15.9924 3.53779 15.9924 4.10252C15.9924 4.66726 15.5303 5.12931 14.9656 5.12931ZM12.6348 9.74985C12.6348 11.5878 11.1357 13.0869 9.29771 13.0869C7.45976 13.0869 5.96065 11.5878 5.96065 9.74985C5.96065 7.9119 7.45976 6.41279 9.29771 6.41279C11.1357 6.41279 12.6348 7.9119 12.6348 9.74985Z" fill="white"/>
</svg>
