<svg width="19" height="19" viewBox="0 0 19 19" fill="none" xmlns="http://www.w3.org/2000/svg">
<path d="M9.42816 0.446289C4.54691 0.446289 0.588867 4.40433 0.588867 9.28559C0.588867 10.9258 1.04066 12.4677 1.82638 13.7936L0.588867 18.1249L4.9201 16.8874C6.24599 17.6731 7.78798 18.1249 9.42816 18.1249C14.3094 18.1249 18.2675 14.1668 18.2675 9.28559C18.2675 4.40433 14.3094 0.446289 9.42816 0.446289ZM14.1621 12.6642C13.9559 13.2436 12.9737 13.774 12.5317 13.8231C12.0897 13.8722 11.6773 14.0293 9.63444 13.224C7.17908 12.2418 5.61745 9.70791 5.49959 9.55077C5.38173 9.39363 4.51744 8.2347 4.51744 7.03648C4.51744 5.83827 5.13618 5.25879 5.36207 5.00344C5.58797 4.7579 5.85318 4.69897 6.01032 4.69897C6.17729 4.69897 6.33441 4.69897 6.48173 4.70879C6.6487 4.70879 6.84511 4.70879 7.0219 5.12129C7.23797 5.60254 7.69958 6.80076 7.75851 6.9088C7.81744 7.02666 7.85674 7.17397 7.77817 7.33111C7.68978 7.48826 7.65049 7.5963 7.53263 7.7338C7.41478 7.8713 7.27728 8.04809 7.16924 8.15613C7.04157 8.27398 6.92372 8.40166 7.06122 8.6472C7.20854 8.88291 7.68979 9.68826 8.40676 10.3267C9.32997 11.1615 10.1058 11.4168 10.3514 11.5347C10.5871 11.6525 10.7344 11.6329 10.8719 11.4758C11.0192 11.3186 11.4808 10.7686 11.638 10.5231C11.7951 10.2874 11.9523 10.3267 12.1782 10.4052C12.404 10.4838 13.5826 11.0829 13.8282 11.2008C14.0639 11.3284 14.2309 11.3874 14.2898 11.4856C14.3487 11.5838 14.3487 12.0749 14.1523 12.6445L14.1621 12.6642Z" fill="white"/>
</svg>
