<svg width="16" height="18" viewBox="0 0 16 18" fill="none" xmlns="http://www.w3.org/2000/svg">
<path d="M8.00826 7.85417C5.85959 7.85417 4.11243 6.10608 4.11243 3.95833C4.11243 1.81058 5.85959 0.0625 8.00826 0.0625C10.1569 0.0625 11.9041 1.81058 11.9041 3.95833C11.9041 6.10608 10.1569 7.85417 8.00826 7.85417ZM8.00826 1.4375C6.61768 1.4375 5.48743 2.56775 5.48743 3.95833C5.48743 5.34892 6.61768 6.47917 8.00826 6.47917C9.39884 6.47917 10.5291 5.34892 10.5291 3.95833C10.5291 2.56775 9.39793 1.4375 8.00826 1.4375ZM11.6638 17.9375H4.33611C2.11778 17.9375 0.895813 16.723 0.895813 14.5175C0.895813 12.0782 2.27631 9.22917 6.16665 9.22917H9.83331C13.7236 9.22917 15.1041 12.0773 15.1041 14.5175C15.1041 16.723 13.8822 17.9375 11.6638 17.9375ZM6.16665 10.6042C2.55223 10.6042 2.27081 13.599 2.27081 14.5175C2.27081 15.9511 2.88869 16.5625 4.33611 16.5625H11.6638C13.1113 16.5625 13.7291 15.9511 13.7291 14.5175C13.7291 13.5999 13.4477 10.6042 9.83331 10.6042H6.16665Z" fill="white"/>
</svg>
